<svg width="56" height="56" viewBox="0 0 56 56" fill="none" xmlns="http://www.w3.org/2000/svg">
<rect width="56" height="56" rx="12" fill="#10C17D" fill-opacity="0.1"/>
<path d="M31.71 28.7099C32.6904 27.9385 33.406 26.8808 33.7572 25.6838C34.1085 24.4868 34.0779 23.2101 33.6698 22.0313C33.2617 20.8526 32.4963 19.8303 31.4801 19.1067C30.4639 18.3832 29.2474 17.9944 28 17.9944C26.7525 17.9944 25.5361 18.3832 24.5199 19.1067C23.5037 19.8303 22.7383 20.8526 22.3302 22.0313C21.9221 23.2101 21.8915 24.4868 22.2428 25.6838C22.594 26.8808 23.3096 27.9385 24.29 28.7099C22.6101 29.3829 21.1443 30.4992 20.0489 31.9398C18.9535 33.3804 18.2696 35.0912 18.07 36.8899C18.0556 37.0212 18.0671 37.1541 18.104 37.2809C18.1409 37.4078 18.2025 37.5261 18.2851 37.6292C18.452 37.8374 18.6948 37.9707 18.96 37.9999C19.2252 38.0291 19.4912 37.9517 19.6993 37.7848C19.9075 37.6179 20.0408 37.3751 20.07 37.1099C20.2896 35.1551 21.2217 33.3497 22.6882 32.0387C24.1547 30.7277 26.0529 30.0029 28.02 30.0029C29.9871 30.0029 31.8852 30.7277 33.3518 32.0387C34.8183 33.3497 35.7504 35.1551 35.97 37.1099C35.9972 37.3556 36.1144 37.5825 36.2991 37.7469C36.4838 37.9113 36.7228 38.0014 36.97 37.9999H37.08C37.3421 37.9697 37.5817 37.8372 37.7466 37.6311C37.9114 37.4251 37.9881 37.1622 37.96 36.8999C37.7595 35.0961 37.0719 33.3809 35.9708 31.9381C34.8698 30.4953 33.3969 29.3794 31.71 28.7099ZM28 27.9999C27.2089 27.9999 26.4355 27.7653 25.7777 27.3258C25.1199 26.8862 24.6072 26.2615 24.3045 25.5306C24.0017 24.7997 23.9225 23.9954 24.0769 23.2195C24.2312 22.4436 24.6122 21.7309 25.1716 21.1715C25.731 20.612 26.4437 20.2311 27.2196 20.0767C27.9956 19.9224 28.7998 20.0016 29.5307 20.3044C30.2616 20.6071 30.8863 21.1198 31.3259 21.7776C31.7654 22.4354 32 23.2088 32 23.9999C32 25.0607 31.5786 26.0782 30.8284 26.8283C30.0783 27.5785 29.0609 27.9999 28 27.9999Z" fill="url(#paint0_linear_135_698)"/>
<defs>
<linearGradient id="paint0_linear_135_698" x1="37.9657" y1="38.0545" x2="17.9545" y2="18.1531" gradientUnits="userSpaceOnUse">
<stop stop-color="#10C17D"/>
<stop offset="1" stop-color="#01F094"/>
</linearGradient>
</defs>
</svg>
