<svg width="56" height="56" viewBox="0 0 56 56" fill="none" xmlns="http://www.w3.org/2000/svg">
<rect width="56" height="56" rx="12" fill="#10C17D" fill-opacity="0.1"/>
<path d="M33.4999 29.8999C33.4999 29.6999 33.2999 29.4999 33.0999 29.4999C32.9999 29.4999 32.8999 29.4999 32.7999 29.5999C31.4999 30.6999 29.7999 31.2999 27.9999 31.2999C26.2999 31.2999 24.5999 30.6999 23.1999 29.5999C23.0999 29.4999 22.9999 29.4999 22.8999 29.4999C22.6999 29.4999 22.4999 29.6999 22.4999 29.8999C22.4999 30.0999 22.5999 30.1999 22.6999 30.3999C23.9999 31.9999 25.9999 32.8999 27.9999 32.7999C29.9999 32.8999 31.8999 31.9999 33.1999 30.3999C33.3999 30.1999 33.3999 30.0999 33.4999 29.8999ZM36.1999 36.7999C35.3999 36.3999 34.7999 35.5999 34.4999 34.7999C34.3999 34.5999 34.4999 34.4999 34.5999 34.3999C36.6999 32.8999 37.8999 30.4999 37.8999 27.9999C37.8999 23.1999 33.3999 19.3999 27.8999 19.3999C22.3999 19.3999 17.8999 23.2999 17.8999 27.9999C17.8999 32.7999 22.3999 36.5999 27.8999 36.5999C28.5999 36.5999 29.2999 36.4999 29.9999 36.3999C30.0999 36.3999 30.2999 36.3999 30.3999 36.4999C31.9999 37.3999 33.7999 37.9999 35.5999 37.9999C35.9999 38.0999 36.2999 37.7999 36.3999 37.3999V37.2999C36.4999 37.0999 36.3999 36.8999 36.1999 36.7999ZM33.4999 35.9999V36.0999C33.4999 36.1999 33.3999 36.1999 33.3999 36.1999C32.2999 35.8999 31.3999 35.3999 30.4999 34.6999C30.3999 34.5999 30.1999 34.5999 29.9999 34.5999C29.2999 34.7999 28.5999 34.7999 27.8999 34.7999C23.2999 34.7999 19.5999 31.6999 19.5999 27.8999C19.5999 24.0999 23.2999 20.9999 27.8999 20.9999C32.4999 20.9999 36.1999 24.0999 36.1999 27.8999C36.0999 30.1999 34.7999 32.2999 32.7999 33.3999C32.5999 33.4999 32.4999 33.6999 32.4999 33.7999C32.7999 34.6999 33.0999 35.3999 33.4999 35.9999Z" fill="url(#paint0_linear_135_709)"/>
<defs>
<linearGradient id="paint0_linear_135_709" x1="37.8999" y1="38.0645" x2="19.3281" y2="18.1156" gradientUnits="userSpaceOnUse">
<stop stop-color="#10C17D"/>
<stop offset="1" stop-color="#01F094"/>
</linearGradient>
</defs>
</svg>
