<svg width="20" height="20" viewBox="0 0 20 20" fill="none" xmlns="http://www.w3.org/2000/svg">
<path d="M0 10C0 4.47715 4.47715 0 10 0C15.5228 0 20 4.47715 20 10C20 15.5228 15.5228 20 10 20C4.47715 20 0 15.5228 0 10Z" fill="#10C17D"/>
<path d="M5.70898 12.7499H8.00565C8.07694 12.7503 8.1476 12.7366 8.2136 12.7097C8.2796 12.6827 8.33962 12.643 8.39023 12.5928L12.1386 8.83905L13.6769 7.33322C13.7277 7.28286 13.768 7.22296 13.7955 7.15695C13.823 7.09094 13.8371 7.02014 13.8371 6.94864C13.8371 6.87713 13.823 6.80633 13.7955 6.74032C13.768 6.67432 13.7277 6.61441 13.6769 6.56405L11.3802 4.2403C11.3299 4.18953 11.27 4.14924 11.204 4.12174C11.138 4.09424 11.0672 4.08008 10.9957 4.08008C10.9241 4.08008 10.8533 4.09424 10.7873 4.12174C10.7213 4.14924 10.6614 4.18953 10.6111 4.2403L9.08357 5.77322L5.3244 9.52697C5.2742 9.57758 5.23448 9.63761 5.20753 9.7036C5.18057 9.7696 5.16691 9.84027 5.16732 9.91155V12.2082C5.16732 12.3519 5.22439 12.4897 5.32597 12.5912C5.42755 12.6928 5.56533 12.7499 5.70898 12.7499ZM10.9957 5.38864L12.5286 6.92155L11.7594 7.69072L10.2265 6.1578L10.9957 5.38864ZM6.25065 10.1336L9.46273 6.92155L10.9957 8.45447L7.78357 11.6666H6.25065V10.1336ZM14.3757 13.8332H4.62565C4.48199 13.8332 4.34422 13.8903 4.24263 13.9919C4.14105 14.0935 4.08398 14.2312 4.08398 14.3749C4.08398 14.5185 4.14105 14.6563 4.24263 14.7579C4.34422 14.8595 4.48199 14.9166 4.62565 14.9166H14.3757C14.5193 14.9166 14.6571 14.8595 14.7587 14.7579C14.8603 14.6563 14.9173 14.5185 14.9173 14.3749C14.9173 14.2312 14.8603 14.0935 14.7587 13.9919C14.6571 13.8903 14.5193 13.8332 14.3757 13.8332Z" fill="white"/>
</svg>
