<svg width="22" height="22" viewBox="0 0 22 22" fill="none" xmlns="http://www.w3.org/2000/svg">
<path d="M14.5 8C14.8978 8 15.2794 7.84196 15.5607 7.56066C15.842 7.27936 16 6.89782 16 6.5C16 6.10218 15.842 5.72064 15.5607 5.43934C15.2794 5.15804 14.8978 5 14.5 5C14.1022 5 13.7206 5.15804 13.4393 5.43934C13.158 5.72064 13 6.10218 13 6.5C13 6.89782 13.158 7.27936 13.4393 7.56066C13.7206 7.84196 14.1022 8 14.5 8ZM7.5 8C7.89782 8 8.27936 7.84196 8.56066 7.56066C8.84196 7.27936 9 6.89782 9 6.5C9 6.10218 8.84196 5.72064 8.56066 5.43934C8.27936 5.15804 7.89782 5 7.5 5C7.10218 5 6.72064 5.15804 6.43934 5.43934C6.15804 5.72064 6 6.10218 6 6.5C6 6.89782 6.15804 7.27936 6.43934 7.56066C6.72064 7.84196 7.10218 8 7.5 8ZM7.4 11.55H14.6C15.1 11.55 15.5 11.95 15.5 12.45C15.5 14.94 13.49 16.95 11 16.95C8.51 16.95 6.5 14.94 6.5 12.45C6.5 11.95 6.9 11.55 7.4 11.55Z" stroke="black" stroke-opacity="0.59" stroke-width="1.5" stroke-miterlimit="10" stroke-linecap="round" stroke-linejoin="round"/>
<path d="M11 21C16.523 21 21 16.523 21 11C21 5.477 16.523 1 11 1C5.477 1 1 5.477 1 11C1 16.523 5.477 21 11 21Z" stroke="black" stroke-opacity="0.59" stroke-width="1.5" stroke-linecap="round" stroke-linejoin="round"/>
</svg>
