<svg width="56" height="56" viewBox="0 0 56 56" fill="none" xmlns="http://www.w3.org/2000/svg">
<rect width="56" height="56" rx="12" fill="#10C17D" fill-opacity="0.1"/>
<path d="M28 18C26.0222 18 24.0888 18.5865 22.4443 19.6853C20.7998 20.7841 19.5181 22.3459 18.7612 24.1732C18.0043 26.0004 17.8063 28.0111 18.1922 29.9509C18.578 31.8907 19.5304 33.6725 20.9289 35.0711C22.3275 36.4696 24.1093 37.422 26.0491 37.8079C27.9889 38.1937 29.9996 37.9957 31.8268 37.2388C33.6541 36.4819 35.2159 35.2002 36.3147 33.5557C37.4135 31.9112 38 29.9778 38 28C37.9971 25.3487 36.9425 22.8069 35.0678 20.9322C33.1931 19.0575 30.6513 18.0029 28 18ZM28 36C26.4178 36 24.871 35.5308 23.5554 34.6518C22.2398 33.7727 21.2145 32.5233 20.609 31.0615C20.0035 29.5997 19.845 27.9911 20.1537 26.4393C20.4624 24.8874 21.2243 23.462 22.3432 22.3431C23.462 21.2243 24.8874 20.4624 26.4393 20.1537C27.9911 19.845 29.5997 20.0035 31.0615 20.609C32.5233 21.2145 33.7727 22.2398 34.6518 23.5554C35.5308 24.871 36 26.4177 36 28C35.9976 30.121 35.1539 32.1544 33.6542 33.6542C32.1544 35.1539 30.121 35.9976 28 36ZM28 27.5C27.7348 27.5 27.4804 27.6054 27.2929 27.7929C27.1054 27.9804 27 28.2348 27 28.5V31.5C27 31.7652 27.1054 32.0196 27.2929 32.2071C27.4804 32.3946 27.7348 32.5 28 32.5C28.2652 32.5 28.5196 32.3946 28.7071 32.2071C28.8946 32.0196 29 31.7652 29 31.5V28.5C29 28.2348 28.8946 27.9804 28.7071 27.7929C28.5196 27.6054 28.2652 27.5 28 27.5ZM28 23.5C27.7528 23.5 27.5111 23.5733 27.3055 23.7107C27.1 23.848 26.9398 24.0432 26.8452 24.2716C26.7505 24.5001 26.7258 24.7514 26.774 24.9939C26.8223 25.2363 26.9413 25.4591 27.1161 25.6339C27.2909 25.8087 27.5137 25.9278 27.7561 25.976C27.9986 26.0242 28.25 25.9995 28.4784 25.9048C28.7068 25.8102 28.902 25.65 29.0393 25.4445C29.1767 25.2389 29.25 24.9972 29.25 24.75C29.25 24.4185 29.1183 24.1005 28.8839 23.8661C28.6495 23.6317 28.3315 23.5 28 23.5Z" fill="url(#paint0_linear_135_742)"/>
<defs>
<linearGradient id="paint0_linear_135_742" x1="38" y1="38.0486" x2="18" y2="18.0486" gradientUnits="userSpaceOnUse">
<stop stop-color="#10C17D"/>
<stop offset="1" stop-color="#01F094"/>
</linearGradient>
</defs>
</svg>
