<svg width="56" height="56" viewBox="0 0 56 56" fill="none" xmlns="http://www.w3.org/2000/svg">
<rect width="56" height="56" rx="12" fill="#FF1843" fill-opacity="0.1"/>
<path d="M20 28C20 28.2652 20.1054 28.5196 20.2929 28.7071C20.4804 28.8946 20.7348 29 21 29H28.59L26.29 31.29C26.1963 31.383 26.1219 31.4936 26.0711 31.6154C26.0203 31.7373 25.9942 31.868 25.9942 32C25.9942 32.132 26.0203 32.2627 26.0711 32.3846C26.1219 32.5064 26.1963 32.617 26.29 32.71C26.383 32.8037 26.4936 32.8781 26.6154 32.9289C26.7373 32.9797 26.868 33.0058 27 33.0058C27.132 33.0058 27.2627 32.9797 27.3846 32.9289C27.5064 32.8781 27.617 32.8037 27.71 32.71L31.71 28.71C31.801 28.6149 31.8724 28.5028 31.92 28.38C32.02 28.1365 32.02 27.8635 31.92 27.62C31.8724 27.4972 31.801 27.3851 31.71 27.29L27.71 23.29C27.6168 23.1968 27.5061 23.1228 27.3842 23.0723C27.2624 23.0219 27.1319 22.9959 27 22.9959C26.8681 22.9959 26.7376 23.0219 26.6158 23.0723C26.4939 23.1228 26.3832 23.1968 26.29 23.29C26.1968 23.3832 26.1228 23.4939 26.0723 23.6158C26.0219 23.7376 25.9959 23.8681 25.9959 24C25.9959 24.1319 26.0219 24.2624 26.0723 24.3842C26.1228 24.5061 26.1968 24.6168 26.29 24.71L28.59 27H21C20.7348 27 20.4804 27.1054 20.2929 27.2929C20.1054 27.4804 20 27.7348 20 28ZM33 18H23C22.2044 18 21.4413 18.3161 20.8787 18.8787C20.3161 19.4413 20 20.2044 20 21V24C20 24.2652 20.1054 24.5196 20.2929 24.7071C20.4804 24.8946 20.7348 25 21 25C21.2652 25 21.5196 24.8946 21.7071 24.7071C21.8946 24.5196 22 24.2652 22 24V21C22 20.7348 22.1054 20.4804 22.2929 20.2929C22.4804 20.1054 22.7348 20 23 20H33C33.2652 20 33.5196 20.1054 33.7071 20.2929C33.8946 20.4804 34 20.7348 34 21V35C34 35.2652 33.8946 35.5196 33.7071 35.7071C33.5196 35.8946 33.2652 36 33 36H23C22.7348 36 22.4804 35.8946 22.2929 35.7071C22.1054 35.5196 22 35.2652 22 35V32C22 31.7348 21.8946 31.4804 21.7071 31.2929C21.5196 31.1054 21.2652 31 21 31C20.7348 31 20.4804 31.1054 20.2929 31.2929C20.1054 31.4804 20 31.7348 20 32V35C20 35.7956 20.3161 36.5587 20.8787 37.1213C21.4413 37.6839 22.2044 38 23 38H33C33.7956 38 34.5587 37.6839 35.1213 37.1213C35.6839 36.5587 36 35.7956 36 35V21C36 20.2044 35.6839 19.4413 35.1213 18.8787C34.5587 18.3161 33.7956 18 33 18Z" fill="url(#paint0_linear_135_753)"/>
<defs>
<linearGradient id="paint0_linear_135_753" x1="36" y1="38.0486" x2="16.4878" y2="22.4388" gradientUnits="userSpaceOnUse">
<stop stop-color="#FF1843" stop-opacity="0.9"/>
<stop offset="1" stop-color="#FF5E7C" stop-opacity="0.9"/>
</linearGradient>
</defs>
</svg>
