<svg width="20" height="29" viewBox="0 0 20 29" fill="none" xmlns="http://www.w3.org/2000/svg">
<path d="M9.83515 18.265C11.3257 18.265 12.7551 17.6729 13.8091 16.619C14.863 15.565 15.4552 14.1355 15.4552 12.645V5.62001C15.4552 4.12949 14.863 2.70002 13.8091 1.64606C12.7551 0.592106 11.3257 0 9.83515 0C8.34463 0 6.91516 0.592106 5.86121 1.64606C4.80725 2.70002 4.21515 4.12949 4.21515 5.62001V12.645C4.21515 14.1355 4.80725 15.565 5.86121 16.619C6.91516 17.6729 8.34463 18.265 9.83515 18.265ZM7.02515 5.62001C7.02515 4.87475 7.3212 4.16001 7.84818 3.63303C8.37516 3.10606 9.08989 2.81 9.83515 2.81C10.5804 2.81 11.2951 3.10606 11.8221 3.63303C12.3491 4.16001 12.6452 4.87475 12.6452 5.62001V12.645C12.6452 13.3903 12.3491 14.105 11.8221 14.632C11.2951 15.159 10.5804 15.455 9.83515 15.455C9.08989 15.455 8.37516 15.159 7.84818 14.632C7.3212 14.105 7.02515 13.3903 7.02515 12.645V5.62001Z" fill="#F9F9F9"/>
<path d="M19.67 12.645C19.67 12.2724 19.522 11.915 19.2585 11.6515C18.995 11.388 18.6376 11.24 18.265 11.24C17.8924 11.24 17.535 11.388 17.2715 11.6515C17.008 11.915 16.86 12.2724 16.86 12.645C16.86 14.5081 16.1199 16.295 14.8024 17.6124C13.485 18.9299 11.6981 19.67 9.835 19.67C7.97185 19.67 6.18502 18.9299 4.86757 17.6124C3.55013 16.295 2.81 14.5081 2.81 12.645C2.81 12.2724 2.66197 11.915 2.39848 11.6515C2.135 11.388 1.77763 11.24 1.405 11.24C1.03237 11.24 0.675004 11.388 0.411515 11.6515C0.148027 11.915 0 12.2724 0 12.645C0.00276941 15.008 0.856217 17.291 2.40421 19.0763C3.9522 20.8617 6.09124 22.03 8.43 22.3676V25.29H5.46545C5.13381 25.29 4.81575 25.4217 4.58125 25.6562C4.34674 25.8908 4.215 26.2088 4.215 26.5404V26.8495C4.215 27.1812 4.34674 27.4992 4.58125 27.7337C4.81575 27.9683 5.13381 28.1 5.46545 28.1H14.2045C14.5362 28.1 14.8542 27.9683 15.0888 27.7337C15.3233 27.4992 15.455 27.1812 15.455 26.8495V26.5404C15.455 26.2088 15.3233 25.8908 15.0888 25.6562C14.8542 25.4217 14.5362 25.29 14.2045 25.29H11.24V22.3676C13.5788 22.03 15.7178 20.8617 17.2658 19.0763C18.8138 17.291 19.6672 15.008 19.67 12.645Z" fill="#F9F9F9"/>
</svg>
