<svg width="56" height="56" viewBox="0 0 56 56" fill="none" xmlns="http://www.w3.org/2000/svg">
<rect width="56" height="56" rx="12" fill="#10C17D" fill-opacity="0.1"/>
<path d="M34 29.18V26C33.9986 24.5831 33.4958 23.2125 32.5806 22.1308C31.6655 21.0491 30.3971 20.3261 29 20.09V19C29 18.7348 28.8946 18.4804 28.7071 18.2929C28.5196 18.1054 28.2652 18 28 18C27.7348 18 27.4804 18.1054 27.2929 18.2929C27.1054 18.4804 27 18.7348 27 19V20.09C25.6029 20.3261 24.3345 21.0491 23.4194 22.1308C22.5042 23.2125 22.0014 24.5831 22 26V29.18C21.4165 29.3863 20.911 29.7681 20.5529 30.2729C20.1949 30.7778 20.0017 31.3811 20 32V34C20 34.2652 20.1054 34.5196 20.2929 34.7071C20.4804 34.8946 20.7348 35 21 35H24.14C24.3703 35.8474 24.873 36.5954 25.5706 37.1287C26.2682 37.6621 27.1219 37.951 28 37.951C28.8781 37.951 29.7318 37.6621 30.4294 37.1287C31.127 36.5954 31.6297 35.8474 31.86 35H35C35.2652 35 35.5196 34.8946 35.7071 34.7071C35.8946 34.5196 36 34.2652 36 34V32C35.9983 31.3811 35.8051 30.7778 35.4471 30.2729C35.089 29.7681 34.5835 29.3863 34 29.18ZM24 26C24 24.9391 24.4214 23.9217 25.1716 23.1716C25.9217 22.4214 26.9391 22 28 22C29.0609 22 30.0783 22.4214 30.8284 23.1716C31.5786 23.9217 32 24.9391 32 26V29H24V26ZM28 36C27.651 35.9979 27.3086 35.9045 27.0068 35.7291C26.7051 35.5536 26.4545 35.3023 26.28 35H29.72C29.5455 35.3023 29.2949 35.5536 28.9932 35.7291C28.6914 35.9045 28.349 35.9979 28 36ZM34 33H22V32C22 31.7348 22.1054 31.4804 22.2929 31.2929C22.4804 31.1054 22.7348 31 23 31H33C33.2652 31 33.5196 31.1054 33.7071 31.2929C33.8946 31.4804 34 31.7348 34 32V33Z" fill="url(#paint0_linear_135_720)"/>
<defs>
<linearGradient id="paint0_linear_135_720" x1="36" y1="37.9995" x2="16.5252" y2="22.3813" gradientUnits="userSpaceOnUse">
<stop stop-color="#10C17D"/>
<stop offset="1" stop-color="#01F094"/>
</linearGradient>
</defs>
</svg>
