<svg width="36" height="37" viewBox="0 0 36 37" fill="none" xmlns="http://www.w3.org/2000/svg">
<path d="M34.5539 7.86256L28.4077 1.71633C27.6055 0.962844 26.5544 0.530506 25.4542 0.501554C24.354 0.472602 23.2816 0.849057 22.4409 1.55931L2.25258 21.7477C1.52751 22.4788 1.07606 23.4372 0.973982 24.4619L0.00942785 33.8158C-0.0207897 34.1443 0.0218422 34.4755 0.134284 34.7857C0.246726 35.0959 0.42621 35.3774 0.659941 35.6103C0.869541 35.8182 1.11812 35.9827 1.39142 36.0943C1.66472 36.206 1.95736 36.2625 2.25258 36.2608H2.45446L11.8084 35.4084C12.8331 35.3064 13.7914 34.8549 14.5226 34.1298L34.711 13.9415C35.4945 13.1137 35.918 12.009 35.8886 10.8696C35.8591 9.73012 35.3792 8.6488 34.5539 7.86256ZM11.4046 30.9221L4.67518 31.5502L5.28083 24.8208L17.9546 12.304L24.0111 18.3605L11.4046 30.9221ZM26.9272 15.3547L20.9156 9.34304L25.2897 4.85674L31.4135 10.9805L26.9272 15.3547Z" fill="white"/>
</svg>
