<svg width="17" height="28" viewBox="0 0 17 28" fill="none" xmlns="http://www.w3.org/2000/svg">
<path d="M8.345 27.8183C6.18794 27.8707 4.09814 27.0655 2.53381 25.5794C0.969476 24.0933 0.0582785 22.0475 0 19.8906V5.74583C0.0401033 4.18657 0.696313 2.70671 1.825 1.63016C2.95368 0.553611 4.4629 -0.0319355 6.02231 0.00168851C7.5841 -0.035671 9.09689 0.548211 10.2286 1.62516C11.3603 2.70211 12.0184 4.18411 12.0585 5.74583V19.9045C12.0007 20.8483 11.585 21.7345 10.8962 22.3823C10.2075 23.0302 9.29752 23.3909 8.35195 23.3909C7.40639 23.3909 6.49644 23.0302 5.80768 22.3823C5.11891 21.7345 4.70322 20.8483 4.64538 19.9045V6.84459C4.64538 6.47572 4.79192 6.12195 5.05275 5.86112C5.31358 5.60029 5.66735 5.45375 6.03622 5.45375C6.40509 5.45375 6.75885 5.60029 7.01968 5.86112C7.28052 6.12195 7.42705 6.47572 7.42705 6.84459V19.9045C7.45479 20.1303 7.56414 20.3381 7.73451 20.4888C7.90488 20.6395 8.12449 20.7227 8.35195 20.7227C8.57942 20.7227 8.79903 20.6395 8.9694 20.4888C9.13976 20.3381 9.24912 20.1303 9.27686 19.9045V5.74583C9.23362 4.92303 8.86763 4.15047 8.25832 3.59584C7.64901 3.04121 6.84554 2.74926 6.02231 2.78335C5.20143 2.75301 4.40153 3.04664 3.79525 3.60088C3.18897 4.15513 2.82492 4.92553 2.78167 5.74583V19.8906C2.83957 21.3099 3.45756 22.6483 4.50031 23.6129C5.54305 24.5774 6.92554 25.0894 8.345 25.0367C9.76446 25.0894 11.147 24.5774 12.1897 23.6129C13.2324 22.6483 13.8504 21.3099 13.9083 19.8906V5.74583C13.9083 5.37696 14.0549 5.02319 14.3157 4.76236C14.5765 4.50153 14.9303 4.355 15.2992 4.355C15.668 4.355 16.0218 4.50153 16.2826 4.76236C16.5435 5.02319 16.69 5.37696 16.69 5.74583V19.8906C16.6317 22.0475 15.7205 24.0933 14.1562 25.5794C12.5919 27.0655 10.5021 27.8707 8.345 27.8183Z" fill="#231F20" fill-opacity="0.6"/>
</svg>
