<svg width="52" height="52" viewBox="0 0 52 52" fill="none" xmlns="http://www.w3.org/2000/svg">
<path d="M37.6999 47.6679C28.854 47.6565 20.3738 44.1374 14.1188 37.8824C7.86381 31.6274 4.34472 23.1471 4.33325 14.3012C4.33325 11.6579 5.38331 9.12285 7.25242 7.25374C9.12153 5.38462 11.6566 4.33457 14.2999 4.33457C14.8597 4.3303 15.4185 4.3811 15.9682 4.48623C16.4998 4.56489 17.0223 4.69551 17.5282 4.87623C17.8841 5.0011 18.2012 5.21669 18.4482 5.50169C18.6952 5.78669 18.8636 6.13123 18.9366 6.50124L21.9049 19.5012C21.9849 19.8541 21.9753 20.2214 21.8769 20.5696C21.7785 20.9178 21.5945 21.2358 21.3416 21.4946C21.0599 21.7979 21.0382 21.8196 18.3732 23.2062C20.5074 27.8881 24.2518 31.6479 28.9249 33.8012C30.3332 31.1146 30.3549 31.0929 30.6582 30.8112C30.917 30.5584 31.235 30.3743 31.5832 30.2759C31.9314 30.1775 32.2987 30.1679 32.6516 30.2479L45.6516 33.2162C46.0097 33.2993 46.3409 33.4722 46.6138 33.7186C46.8867 33.965 47.0924 34.2768 47.2116 34.6246C47.3944 35.1389 47.5322 35.6681 47.6232 36.2062C47.7104 36.7508 47.7539 37.3014 47.7532 37.8529C47.7133 40.4849 46.6337 42.9943 44.7502 44.8332C42.8667 46.672 40.3321 47.6911 37.6999 47.6679Z" fill="white"/>
</svg>
