<svg width="24" height="22" viewBox="0 0 24 22" fill="none" xmlns="http://www.w3.org/2000/svg">
<path d="M20.079 5.13454H16.5927V3.39141C16.5927 2.62091 16.2866 1.88195 15.7418 1.33712C15.197 0.79229 14.458 0.486206 13.6875 0.486206H10.2013C9.43076 0.486206 8.6918 0.79229 8.14697 1.33712C7.60214 1.88195 7.29605 2.62091 7.29605 3.39141V5.13454H3.8098C2.88519 5.13454 1.99845 5.50184 1.34465 6.15564C0.690848 6.80944 0.323547 7.69618 0.323547 8.62079V17.9175C0.323547 18.8421 0.690848 19.7288 1.34465 20.3826C1.99845 21.0364 2.88519 21.4037 3.8098 21.4037H20.079C21.0036 21.4037 21.8903 21.0364 22.5441 20.3826C23.1979 19.7288 23.5652 18.8421 23.5652 17.9175V8.62079C23.5652 7.69618 23.1979 6.80944 22.5441 6.15564C21.8903 5.50184 21.0036 5.13454 20.079 5.13454ZM9.62022 3.39141C9.62022 3.23731 9.68144 3.08952 9.79041 2.98056C9.89937 2.87159 10.0472 2.81037 10.2013 2.81037H13.6875C13.8416 2.81037 13.9894 2.87159 14.0984 2.98056C14.2073 3.08952 14.2686 3.23731 14.2686 3.39141V5.13454H9.62022V3.39141ZM21.2411 17.9175C21.2411 18.2257 21.1186 18.5212 20.9007 18.7392C20.6828 18.9571 20.3872 19.0795 20.079 19.0795H3.8098C3.5016 19.0795 3.20602 18.9571 2.98808 18.7392C2.77015 18.5212 2.64772 18.2257 2.64772 17.9175V8.62079C2.64772 8.31259 2.77015 8.017 2.98808 7.79907C3.20602 7.58114 3.5016 7.45871 3.8098 7.45871H20.079C20.3872 7.45871 20.6828 7.58114 20.9007 7.79907C21.1186 8.017 21.2411 8.31259 21.2411 8.62079V17.9175Z" fill="#231F20" fill-opacity="0.62"/>
</svg>
