<svg width="35" height="32" viewBox="0 0 35 32" fill="none" xmlns="http://www.w3.org/2000/svg">
<path d="M29.75 7H24.5V4.375C24.5 3.21468 24.0391 2.10188 23.2186 1.28141C22.3981 0.460936 21.2853 0 20.125 0H14.875C13.7147 0 12.6019 0.460936 11.7814 1.28141C10.9609 2.10188 10.5 3.21468 10.5 4.375V7H5.25C3.85761 7 2.52226 7.55312 1.53769 8.53769C0.553124 9.52226 0 10.8576 0 12.25V26.25C0 27.6424 0.553124 28.9777 1.53769 29.9623C2.52226 30.9469 3.85761 31.5 5.25 31.5H29.75C31.1424 31.5 32.4777 30.9469 33.4623 29.9623C34.4469 28.9777 35 27.6424 35 26.25V12.25C35 10.8576 34.4469 9.52226 33.4623 8.53769C32.4777 7.55312 31.1424 7 29.75 7ZM14 4.375C14 4.14294 14.0922 3.92038 14.2563 3.75628C14.4204 3.59219 14.6429 3.5 14.875 3.5H20.125C20.3571 3.5 20.5796 3.59219 20.7437 3.75628C20.9078 3.92038 21 4.14294 21 4.375V7H14V4.375ZM31.5 26.25C31.5 26.7141 31.3156 27.1593 30.9874 27.4874C30.6593 27.8156 30.2141 28 29.75 28H5.25C4.78587 28 4.34075 27.8156 4.01256 27.4874C3.68437 27.1593 3.5 26.7141 3.5 26.25V12.25C3.5 11.7859 3.68437 11.3408 4.01256 11.0126C4.34075 10.6844 4.78587 10.5 5.25 10.5H29.75C30.2141 10.5 30.6593 10.6844 30.9874 11.0126C31.3156 11.3408 31.5 11.7859 31.5 12.25V26.25Z" fill="white"/>
</svg>
