<svg width="22" height="22" viewBox="0 0 22 22" fill="none" xmlns="http://www.w3.org/2000/svg">
<path d="M7 20H3C2.73478 20 2.48043 19.8946 2.29289 19.7071C2.10536 19.5196 2 19.2652 2 19V15C2 14.7348 1.89464 14.4804 1.70711 14.2929C1.51957 14.1054 1.26522 14 1 14C0.734784 14 0.48043 14.1054 0.292893 14.2929C0.105357 14.4804 0 14.7348 0 15V19C0 19.7956 0.31607 20.5587 0.87868 21.1213C1.44129 21.6839 2.20435 22 3 22H7C7.26522 22 7.51957 21.8946 7.70711 21.7071C7.89464 21.5196 8 21.2652 8 21C8 20.7348 7.89464 20.4804 7.70711 20.2929C7.51957 20.1054 7.26522 20 7 20ZM21 14C20.7348 14 20.4804 14.1054 20.2929 14.2929C20.1054 14.4804 20 14.7348 20 15V19C20 19.2652 19.8946 19.5196 19.7071 19.7071C19.5196 19.8946 19.2652 20 19 20H15C14.7348 20 14.4804 20.1054 14.2929 20.2929C14.1054 20.4804 14 20.7348 14 21C14 21.2652 14.1054 21.5196 14.2929 21.7071C14.4804 21.8946 14.7348 22 15 22H19C19.7956 22 20.5587 21.6839 21.1213 21.1213C21.6839 20.5587 22 19.7956 22 19V15C22 14.7348 21.8946 14.4804 21.7071 14.2929C21.5196 14.1054 21.2652 14 21 14ZM19 0H15C14.7348 0 14.4804 0.105357 14.2929 0.292893C14.1054 0.48043 14 0.734784 14 1C14 1.26522 14.1054 1.51957 14.2929 1.70711C14.4804 1.89464 14.7348 2 15 2H19C19.2652 2 19.5196 2.10536 19.7071 2.29289C19.8946 2.48043 20 2.73478 20 3V7C20 7.26522 20.1054 7.51957 20.2929 7.70711C20.4804 7.89464 20.7348 8 21 8C21.2652 8 21.5196 7.89464 21.7071 7.70711C21.8946 7.51957 22 7.26522 22 7V3C22 2.20435 21.6839 1.44129 21.1213 0.87868C20.5587 0.31607 19.7956 0 19 0ZM1 8C1.26522 8 1.51957 7.89464 1.70711 7.70711C1.89464 7.51957 2 7.26522 2 7V3C2 2.73478 2.10536 2.48043 2.29289 2.29289C2.48043 2.10536 2.73478 2 3 2H7C7.26522 2 7.51957 1.89464 7.70711 1.70711C7.89464 1.51957 8 1.26522 8 1C8 0.734784 7.89464 0.48043 7.70711 0.292893C7.51957 0.105357 7.26522 0 7 0H3C2.20435 0 1.44129 0.31607 0.87868 0.87868C0.31607 1.44129 0 2.20435 0 3V7C0 7.26522 0.105357 7.51957 0.292893 7.70711C0.48043 7.89464 0.734784 8 1 8ZM9 4H5C4.73478 4 4.48043 4.10536 4.29289 4.29289C4.10536 4.48043 4 4.73478 4 5V9C4 9.26522 4.10536 9.51957 4.29289 9.70711C4.48043 9.89464 4.73478 10 5 10H9C9.26522 10 9.51957 9.89464 9.70711 9.70711C9.89464 9.51957 10 9.26522 10 9V5C10 4.73478 9.89464 4.48043 9.70711 4.29289C9.51957 4.10536 9.26522 4 9 4ZM8 8H6V6H8V8ZM13 10H17C17.2652 10 17.5196 9.89464 17.7071 9.70711C17.8946 9.51957 18 9.26522 18 9V5C18 4.73478 17.8946 4.48043 17.7071 4.29289C17.5196 4.10536 17.2652 4 17 4H13C12.7348 4 12.4804 4.10536 12.2929 4.29289C12.1054 4.48043 12 4.73478 12 5V9C12 9.26522 12.1054 9.51957 12.2929 9.70711C12.4804 9.89464 12.7348 10 13 10ZM14 6H16V8H14V6ZM9 12H5C4.73478 12 4.48043 12.1054 4.29289 12.2929C4.10536 12.4804 4 12.7348 4 13V17C4 17.2652 4.10536 17.5196 4.29289 17.7071C4.48043 17.8946 4.73478 18 5 18H9C9.26522 18 9.51957 17.8946 9.70711 17.7071C9.89464 17.5196 10 17.2652 10 17V13C10 12.7348 9.89464 12.4804 9.70711 12.2929C9.51957 12.1054 9.26522 12 9 12ZM8 16H6V14H8V16ZM13 15C13.2652 15 13.5196 14.8946 13.7071 14.7071C13.8946 14.5196 14 14.2652 14 14C14.2652 14 14.5196 13.8946 14.7071 13.7071C14.8946 13.5196 15 13.2652 15 13C15 12.7348 14.8946 12.4804 14.7071 12.2929C14.5196 12.1054 14.2652 12 14 12H13C12.7348 12 12.4804 12.1054 12.2929 12.2929C12.1054 12.4804 12 12.7348 12 13V14C12 14.2652 12.1054 14.5196 12.2929 14.7071C12.4804 14.8946 12.7348 15 13 15ZM17 12C16.7348 12 16.4804 12.1054 16.2929 12.2929C16.1054 12.4804 16 12.7348 16 13V16C15.7348 16 15.4804 16.1054 15.2929 16.2929C15.1054 16.4804 15 16.7348 15 17C15 17.2652 15.1054 17.5196 15.2929 17.7071C15.4804 17.8946 15.7348 18 16 18H17C17.2652 18 17.5196 17.8946 17.7071 17.7071C17.8946 17.5196 18 17.2652 18 17V13C18 12.7348 17.8946 12.4804 17.7071 12.2929C17.5196 12.1054 17.2652 12 17 12ZM13 16C12.8022 16 12.6089 16.0586 12.4444 16.1685C12.28 16.2784 12.1518 16.4346 12.0761 16.6173C12.0004 16.8 11.9806 17.0011 12.0192 17.1951C12.0578 17.3891 12.153 17.5673 12.2929 17.7071C12.4327 17.847 12.6109 17.9422 12.8049 17.9808C12.9989 18.0194 13.2 17.9996 13.3827 17.9239C13.5654 17.8482 13.7216 17.72 13.8315 17.5556C13.9414 17.3911 14 17.1978 14 17C14 16.7348 13.8946 16.4804 13.7071 16.2929C13.5196 16.1054 13.2652 16 13 16Z" fill="url(#paint0_linear_135_692)"/>
<defs>
<linearGradient id="paint0_linear_135_692" x1="22" y1="22.0534" x2="0" y2="0.0534434" gradientUnits="userSpaceOnUse">
<stop stop-color="#10C17D"/>
<stop offset="1" stop-color="#01F094"/>
</linearGradient>
</defs>
</svg>
