<svg width="27" height="27" viewBox="0 0 27 27" fill="none" xmlns="http://www.w3.org/2000/svg">
<path d="M26.4933 23.7592L21.5776 18.8808C23.1636 16.8697 24.0242 14.3862 24.021 11.8295C24.021 9.55256 23.3427 7.32677 22.0717 5.43357C20.8008 3.54038 18.9945 2.06481 16.881 1.19347C14.7676 0.322127 12.442 0.0941439 10.1984 0.53835C7.9548 0.982557 5.89391 2.079 4.27635 3.68903C2.6588 5.29906 1.55723 7.35037 1.11095 9.58354C0.664666 11.8167 0.893714 14.1315 1.76913 16.2351C2.64454 18.3387 4.127 20.1367 6.02905 21.4017C7.93109 22.6666 10.1673 23.3418 12.4549 23.3418C15.0235 23.345 17.5186 22.4885 19.5391 20.9099L24.4403 25.8026C24.5747 25.9375 24.7346 26.0445 24.9108 26.1176C25.0869 26.1907 25.2759 26.2283 25.4668 26.2283C25.6576 26.2283 25.8466 26.1907 26.0228 26.1176C26.199 26.0445 26.3589 25.9375 26.4933 25.8026C26.6288 25.6688 26.7363 25.5097 26.8097 25.3343C26.8831 25.1589 26.9209 24.9708 26.9209 24.7809C26.9209 24.5909 26.8831 24.4028 26.8097 24.2275C26.7363 24.0521 26.6288 23.8929 26.4933 23.7592ZM3.78024 11.8295C3.78024 10.1218 4.289 8.45245 5.24218 7.03255C6.19536 5.61266 7.55015 4.50598 9.13522 3.85247C10.7203 3.19897 12.4645 3.02798 14.1472 3.36114C15.8299 3.69429 17.3756 4.51662 18.5887 5.72415C19.8019 6.93167 20.6281 8.47015 20.9628 10.145C21.2975 11.8199 21.1257 13.556 20.4691 15.1337C19.8126 16.7114 18.7007 18.0599 17.2742 19.0086C15.8477 19.9574 14.1705 20.4638 12.4549 20.4638C10.1542 20.4638 7.94778 19.5541 6.32098 17.9348C4.69417 16.3156 3.78024 14.1194 3.78024 11.8295Z" fill="#231F20"/>
</svg>
