<svg width="56" height="56" viewBox="0 0 56 56" fill="none" xmlns="http://www.w3.org/2000/svg">
<rect width="56" height="56" rx="12" fill="#10C17D" fill-opacity="0.1"/>
<path d="M35.63 19.6501C35.5138 19.5561 35.3781 19.4893 35.2327 19.4547C35.0873 19.4201 34.9361 19.4185 34.79 19.4501C33.7214 19.674 32.6183 19.6769 31.5486 19.4584C30.4789 19.24 29.4653 18.805 28.57 18.1801C28.4026 18.0639 28.2037 18.0017 28 18.0017C27.7963 18.0017 27.5974 18.0639 27.43 18.1801C26.5348 18.805 25.5211 19.24 24.4514 19.4584C23.3817 19.6769 22.2786 19.674 21.21 19.4501C21.0639 19.4185 20.9127 19.4201 20.7673 19.4547C20.6219 19.4893 20.4862 19.5561 20.37 19.6501C20.254 19.7442 20.1605 19.8631 20.0965 19.9981C20.0325 20.1331 19.9995 20.2807 20 20.4301V27.8801C19.9991 29.3138 20.3408 30.727 20.9965 32.002C21.6523 33.277 22.6032 34.3769 23.77 35.2101L27.42 37.8101C27.5894 37.9306 27.7921 37.9954 28 37.9954C28.2079 37.9954 28.4106 37.9306 28.58 37.8101L32.23 35.2101C33.3968 34.3769 34.3477 33.277 35.0035 32.002C35.6592 30.727 36.0009 29.3138 36 27.8801V20.4301C36.0005 20.2807 35.9675 20.1331 35.9035 19.9981C35.8395 19.8631 35.746 19.7442 35.63 19.6501ZM34 27.8801C34.0008 28.9948 33.7353 30.0936 33.2257 31.0851C32.716 32.0765 31.977 32.9319 31.07 33.5801L28 35.7701L24.93 33.5801C24.023 32.9319 23.284 32.0765 22.7744 31.0851C22.2647 30.0936 21.9992 28.9948 22 27.8801V21.5801C24.0964 21.7595 26.196 21.2731 28 20.1901C29.804 21.2731 31.9036 21.7595 34 21.5801V27.8801ZM29.54 25.5901L26.85 28.2901L25.96 27.3901C25.7717 27.2018 25.5163 27.096 25.25 27.096C24.9837 27.096 24.7283 27.2018 24.54 27.3901C24.3517 27.5784 24.2459 27.8338 24.2459 28.1001C24.2459 28.3664 24.3517 28.6218 24.54 28.8101L26.14 30.4101C26.233 30.5038 26.3436 30.5782 26.4654 30.629C26.5873 30.6797 26.718 30.7059 26.85 30.7059C26.982 30.7059 27.1127 30.6797 27.2346 30.629C27.3564 30.5782 27.467 30.5038 27.56 30.4101L31 27.0001C31.1883 26.8118 31.2941 26.5564 31.2941 26.2901C31.2941 26.0238 31.1883 25.7684 31 25.5801C30.8117 25.3918 30.5563 25.286 30.29 25.286C30.0237 25.286 29.7683 25.3918 29.58 25.5801L29.54 25.5901Z" fill="url(#paint0_linear_135_731)"/>
<defs>
<linearGradient id="paint0_linear_135_731" x1="36" y1="38.044" x2="16.4926" y2="22.4332" gradientUnits="userSpaceOnUse">
<stop stop-color="#10C17D"/>
<stop offset="1" stop-color="#01F094"/>
</linearGradient>
</defs>
</svg>
