<svg width="44" height="44" viewBox="0 0 44 44" fill="none" xmlns="http://www.w3.org/2000/svg">
<path d="M37.4272 6.46335C33.8347 2.84742 29.0932 0.598185 24.0201 0.103424C18.947 -0.391336 13.8603 0.899382 9.63687 3.75306C5.41343 6.60673 2.31796 10.8445 0.884133 15.7359C-0.5497 20.6272 -0.232043 25.8655 1.78234 30.5477C1.99229 30.9829 2.06118 31.4728 1.97939 31.949L0.0526439 41.2105C-0.021588 41.5656 -0.00642973 41.9336 0.0967567 42.2813C0.199943 42.6291 0.387924 42.9458 0.643805 43.2029C0.853567 43.4112 1.10332 43.5748 1.37801 43.6839C1.65271 43.793 1.94665 43.8454 2.24213 43.8379H2.68003L12.051 41.9549C12.5273 41.8977 13.0103 41.9656 13.4523 42.152C18.1345 44.1664 23.3728 44.484 28.2641 43.0502C33.1555 41.6164 37.3933 38.5209 40.2469 34.2975C43.1006 30.074 44.3913 24.9873 43.8966 19.9142C43.4018 14.8411 41.1526 10.0996 37.5366 6.50714L37.4272 6.46335ZM39.2444 24.7675C38.8164 27.3817 37.8009 29.8647 36.2745 32.0298C34.7481 34.1948 32.7505 35.9855 30.4321 37.2669C28.1136 38.5484 25.5347 39.2873 22.8895 39.4281C20.2442 39.5688 17.6014 39.1077 15.1601 38.0795C14.2942 37.7113 13.3641 37.5178 12.4232 37.5103C12.0122 37.5132 11.6021 37.5498 11.1971 37.6197L5.02278 38.8678L6.27078 32.6934C6.51935 31.3562 6.35911 29.9752 5.81099 28.7304C4.78279 26.2891 4.32172 23.6463 4.46247 21.0011C4.60322 18.3558 5.34214 15.7769 6.6236 13.4584C7.90507 11.14 9.69571 9.14241 11.8608 7.61601C14.0258 6.08961 16.5089 5.07416 19.1231 4.64608C21.8671 4.19574 24.6789 4.40518 27.3259 5.25708C29.973 6.10898 32.3791 7.57886 34.3454 9.54514C36.3117 11.5114 37.7815 13.9176 38.6334 16.5646C39.4853 19.2116 39.6948 22.0234 39.2444 24.7675Z" fill="white"/>
</svg>
